<svg width="30" height="30" viewBox="0 0 30 30" fill="none" xmlns="http://www.w3.org/2000/svg">
<path d="M27.9 8.96252C27.7487 8.37037 27.5152 7.80235 27.2062 7.27502C26.9095 6.72644 26.53 6.22684 26.0812 5.79377C25.4305 5.14527 24.66 4.62945 23.8125 4.27502C22.1065 3.57487 20.1934 3.57487 18.4875 4.27502C17.6864 4.61409 16.9504 5.08993 16.3125 5.68127L16.2187 5.79377L15 7.01252L13.7812 5.79377L13.6875 5.68127C13.0495 5.08993 12.3135 4.61409 11.5125 4.27502C9.80651 3.57487 7.89342 3.57487 6.18746 4.27502C5.33993 4.62945 4.56939 5.14527 3.91871 5.79377C3.02877 6.6597 2.39879 7.7573 2.09997 8.96252C1.94099 9.57456 1.86531 10.2052 1.87497 10.8375C1.87497 11.4319 1.94997 12.0244 2.09997 12.6C2.25715 13.1813 2.48379 13.7416 2.77497 14.2688C3.08943 14.8107 3.474 15.3087 3.91871 15.75L15 26.8313L26.0812 15.75C26.5256 15.3131 26.9062 14.8125 27.2062 14.2688C27.8152 13.2283 28.1326 12.043 28.125 10.8375C28.1347 10.2052 28.059 9.57454 27.9 8.96252ZM26.025 12.0188C25.8004 12.8755 25.3542 13.658 24.7312 14.2875L14.9625 24.0375L5.19371 14.2875C4.87538 13.9669 4.59825 13.6079 4.36871 13.2188C4.15273 12.8338 3.98281 12.4247 3.86246 12C3.76639 11.5754 3.7161 11.1416 3.71247 10.7063C3.71501 10.2584 3.76529 9.81217 3.86246 9.37502C3.97928 8.94909 4.14937 8.5396 4.36871 8.15627C4.59371 7.76252 4.87121 7.40627 5.19371 7.08752C5.67539 6.61229 6.24127 6.2308 6.86246 5.96252C8.11424 5.46175 9.51069 5.46175 10.7625 5.96252C11.3812 6.21939 11.94 6.59627 12.4125 7.06877L14.9625 9.63752L17.5125 7.06877C17.9846 6.59543 18.5453 6.21955 19.1625 5.96252C20.4142 5.46175 21.8107 5.46175 23.0625 5.96252C23.6831 6.23064 24.2493 6.61314 24.7312 7.08752C25.0575 7.39689 25.3312 7.75689 25.5375 8.15627C25.9718 8.92213 26.198 9.78834 26.1937 10.6688C26.2192 11.1218 26.1814 11.5762 26.0812 12.0188H26.025Z" fill="white"/>
</svg>
