<svg width="20" height="20" viewBox="0 0 20 20" fill="none" xmlns="http://www.w3.org/2000/svg">
<path d="M18.6001 5.975C18.4992 5.58023 18.3435 5.20155 18.1376 4.85C17.9397 4.48428 17.6868 4.15121 17.3876 3.8625C16.9538 3.43016 16.4401 3.08628 15.8751 2.85C14.7378 2.38323 13.4624 2.38323 12.3251 2.85C11.791 3.07604 11.3004 3.39327 10.8751 3.7875L10.8126 3.8625L10.0001 4.675L9.18756 3.8625L9.12506 3.7875C8.69975 3.39327 8.2091 3.07604 7.67506 2.85C6.53775 2.38323 5.26236 2.38323 4.12506 2.85C3.56004 3.08628 3.04634 3.43016 2.61256 3.8625C2.01926 4.43978 1.59927 5.17152 1.40006 5.975C1.29408 6.38302 1.24362 6.80348 1.25006 7.225C1.25006 7.62125 1.30006 8.01625 1.40006 8.4C1.50485 8.78755 1.65594 9.16107 1.85006 9.5125C2.0597 9.87376 2.31608 10.2058 2.61256 10.5L10.0001 17.8875L17.3876 10.5C17.6838 10.2087 17.9376 9.875 18.1376 9.5125C18.5435 8.81888 18.7551 8.02868 18.7501 7.225C18.7565 6.80348 18.7061 6.38301 18.6001 5.975ZM17.3501 8.0125C17.2003 8.58364 16.9029 9.1053 16.4876 9.525L9.97506 16.025L3.46256 9.525C3.25034 9.31127 3.06558 9.07192 2.91256 8.8125C2.76857 8.55584 2.65529 8.28313 2.57506 8C2.51101 7.71689 2.47748 7.42774 2.47506 7.1375C2.47675 6.83895 2.51028 6.54143 2.57506 6.25C2.65293 5.96604 2.76633 5.69306 2.91256 5.4375C3.06256 5.175 3.24756 4.9375 3.46256 4.725C3.78368 4.40818 4.16093 4.15385 4.57506 3.975C5.40957 3.64115 6.34054 3.64115 7.17506 3.975C7.58756 4.14625 7.96006 4.3975 8.27506 4.7125L9.97506 6.425L11.6751 4.7125C11.9898 4.39694 12.3636 4.14635 12.7751 3.975C13.6096 3.64115 14.5405 3.64115 15.3751 3.975C15.7888 4.15375 16.1663 4.40875 16.4876 4.725C16.7051 4.93125 16.8876 5.17125 17.0251 5.4375C17.3146 5.94807 17.4654 6.52555 17.4626 7.1125C17.4796 7.41452 17.4543 7.71745 17.3876 8.0125H17.3501Z" fill="#2C4674"/>
</svg>
